<svg xmlns="http://www.w3.org/2000/svg" viewBox="-29 -12 160 160">
  <circle cx="51" cy="68" r="80" fill="#0064B4"/>
  <path fill-rule="evenodd" clip-rule="evenodd" fill="#FFFFFF" d="M37.2069 133.205C37.6962 133.355 38.2261 133.648 38.4782 134.035C39.0968 133.299 39.9451 131.569 39.5754 129.976C38.4141 129.976 37.3404 131.787 37.2069 133.205ZM40.1855 128.302C40.6267 129.157 40.866 130.662 40.741 131.582C40.9034 131.599 41.1075 131.663 41.2912 131.743C41.6513 130.851 42.0209 128.696 41.2175 127.272C40.8415 127.333 40.2902 127.739 40.1855 128.302ZM43.0434 129.382C43.5166 127.996 43.3778 126.315 42.882 125.66C42.757 125.491 42.037 125.891 41.912 126.391C42.3073 127.065 42.6897 128.45 42.6481 129.308C42.7731 129.308 42.9173 129.326 43.0434 129.382ZM76.0847 127.465C76.7332 127.571 77.3454 127.833 77.7022 128.059C78.0184 127.535 78.8176 125.411 78.3592 124.248C77.0441 124.373 76.0633 126.534 76.0847 127.465ZM79.0953 122.844C79.4201 123.423 79.6861 124.574 79.7054 125.304C79.8784 125.316 80.0975 125.316 80.2545 125.36C80.7267 123.942 80.5707 122.218 80.0975 121.588C79.8111 121.494 79.3111 122.243 79.0953 122.844ZM81.7716 121.819C81.9286 121.025 81.7716 119.546 81.3485 118.995C81.0515 118.809 80.7032 119.371 80.5515 120.045C80.8945 120.538 81.3068 121.307 81.3955 121.819C81.5216 121.806 81.637 121.806 81.7716 121.819ZM51.4183 80.5022C49.5753 81.1774 47.2677 82.7374 47.1982 83.1751C47.0433 84.1878 46.9813 85.65 46.9813 86.7415C48.1833 86.0493 48.5251 84.8055 49.8766 83.7363C52.3136 81.827 53.4973 81.5501 53.368 81.2711C53.0871 80.7578 51.945 80.5022 51.4183 80.5022ZM77.8272 116.411C74.1499 116.028 70.6072 119.32 68.2899 117.865C67.2343 117.204 65.823 115.685 64.7889 114.173C64.1393 113.231 62.3092 110.508 62.4769 109.414C62.5453 108.957 63.2739 108.622 64.557 107.808C66.7984 106.398 68.8123 104.98 70.6777 103.474C72.949 101.65 76.4447 98.8888 76.4778 95.3054C76.5024 92.838 74.8667 90.1523 73.59 88.5028C71.3465 85.6063 67.4843 82.8503 63.8028 80.7578C62.1842 79.842 59.1607 78.267 57.2761 77.5216C55.4214 78.5598 54.5069 78.841 52.9353 79.6844C54.0881 80.1476 55.0347 80.8888 54.8477 81.5213C54.7313 81.9153 54.4407 82.0016 53.0625 82.9132C52.2569 83.4509 51.2687 84.2251 50.8104 84.6436C49.7954 85.5733 49.2399 86.6041 48.3766 87.6296C47.8531 88.2472 47.5219 88.4783 46.9942 88.8713C46.9899 89.3888 46.96 89.8659 46.929 90.5208C52.9353 90.6891 58.369 92.4195 60.9887 95.7686C61.3637 96.2489 61.9438 97.0785 62.1778 97.6961C63.3562 100.821 61.3562 103.368 59.6767 104.474C58.0079 105.573 54.2046 106.243 53.1319 107.254C52.3061 108.029 52.2313 109.433 51.2495 110.644C50.8093 111.195 50.2879 111.52 49.6704 111.875C50.0048 112.507 51.2901 113.062 52.2067 112.962C52.5625 112.619 52.9183 112.382 53.2858 111.825C53.5667 111.4 53.8135 110.72 53.7932 109.97C53.789 109.783 54.0539 109.576 54.1725 110.2C54.7687 113.312 51.1458 113.674 51.7986 117.153C52.4631 116.71 53.5262 116.181 54.6661 116.467C54.9524 115.86 55.3616 115.503 55.6917 114.986C55.8904 114.674 56.1244 114.186 56.0945 113.294C56.087 113.068 56.3926 112.982 56.5176 113.768C56.8765 116.01 54.4973 116.579 55.4802 120.126C56.1212 119.577 57.0646 119.334 57.9716 119.357C58.2077 118.851 58.7825 118.339 58.6447 117.216C58.6148 116.967 58.8819 116.717 59.0795 117.547C59.4748 119.208 58.0699 119.832 58.7911 122.024C61.2964 121.014 61.9363 122.819 63.0474 124.242C63.681 125.062 64.5175 126.347 65.1777 126.853C66.8604 128.139 71.5698 127.034 75.1413 127.409C75.3721 125.472 76.6285 123.742 78.1594 123.38C77.4362 120.981 74.261 120.413 72.6948 122.018C72.4576 122.262 72.6061 121.618 73.0698 121.226C74.5719 119.963 77.2652 120.351 78.5953 122.088C78.8603 121.431 79.3742 120.857 79.7684 120.84C78.6423 118.452 75.3625 117.92 73.5601 119.384C73.4191 119.496 73.3732 119.183 73.8732 118.746C75.2663 117.528 78.246 117.615 80.0034 119.483C80.1231 118.802 80.4778 118.296 80.8325 118.296C80.3475 117.515 79.0216 116.529 77.8272 116.411ZM97.6571 65.1879C96.5182 65.9546 96.515 67.7543 96.7127 68.8969C97.3152 68.7926 97.8142 68.8096 98.343 68.9758C98.7052 67.7852 98.3387 65.879 97.6571 65.1879ZM99.7896 66.0281C99.8152 64.6661 99.0727 62.7685 98.2661 62.0763C97.8761 62.138 97.796 63.0592 97.8398 63.6683C98.6058 64.3307 99.1176 65.2965 99.3611 66.1005C99.5086 66.0686 99.6731 66.0324 99.7896 66.0281ZM98.5919 61.0763C99.14 61.645 99.702 62.4799 99.9669 63.2125C100.058 63.1891 100.21 63.1507 100.309 63.1507C100.375 62.1828 99.7703 60.4566 98.9712 59.7676C98.6272 59.6739 98.5022 60.6312 98.5919 61.0763ZM94.0386 28.9078C93.2672 27.7098 91.6721 27.2519 90.8431 27.3297C90.5525 28.4978 92.0728 29.8481 93.093 30.2251C93.421 29.4797 93.7469 29.1059 94.0386 28.9078ZM92.0204 25.8835C91.2929 25.1796 89.4211 24.3128 88.076 24.7547C87.967 25.3 88.7245 26.0305 89.2715 26.3574C89.9307 26.1093 90.8602 26.0017 91.8591 26.2307C91.8997 26.1263 91.951 26.0198 92.0204 25.8835ZM84.5557 29.5329C84.0579 28.1656 84.1466 27.1497 84.6936 25.9698C84.9607 25.3937 85.5728 24.7409 85.9863 24.4299C85.2641 24.2691 84.9916 23.8954 84.9008 23.5684C80.9671 25.6652 83.0162 29.7267 82.6124 33.3431C82.3613 35.5922 79.496 36.3941 77.6092 37.5708C75.9875 38.5835 74.3988 39.6718 73.2792 40.8124C75.3091 45.6023 73.9191 46.6533 76.184 48.9652C75.7994 49.4274 75.0729 49.7501 74.542 49.7522C74.5099 51.7808 74.3294 53.6188 73.8069 55.4324C75.4629 54.7615 76.6947 55.8743 78.0761 54.5336C76.8058 53.5698 76.7535 51.7808 77.0783 50.7841C77.2684 50.2069 77.5142 50.2782 77.5142 50.438C77.5142 50.7287 77.5515 50.9917 77.6178 51.1802C78.3549 51.3698 79.919 51.4432 80.9532 50.767C79.1861 47.7544 82.5675 45.1028 85.1284 43.4363C86.904 42.2808 89.466 41.0051 90.733 39.2981C92.4424 37 91.6027 34.5007 92.6999 31.0962C91.4093 30.4519 89.7021 29.1794 89.8901 27.3563C88.5333 27.5267 86.9393 29.2017 87.8132 32.0397C87.9596 32.5306 87.6593 32.389 87.3741 31.929C86.263 29.8492 87.2544 27.4734 88.5215 26.7791C87.81 26.3276 87.217 25.4416 87.2908 24.9698C85.2342 25.7153 84.5825 27.4947 85.028 29.8588C85.0985 30.207 84.8068 30.2177 84.5557 29.5329ZM88.8506 23.1244C88.123 22.7815 86.7373 22.5983 85.7918 23.1435C85.482 23.4151 85.8709 23.791 86.763 23.9731C87.4564 23.644 88.1925 23.5088 88.7961 23.4886C88.7961 23.3437 88.8153 23.2884 88.8506 23.1244ZM63.4459 19.6943C63.3679 19.656 63.3102 19.8306 63.1917 20.0159C63.0239 20.2694 62.744 20.6602 62.3455 21.0042C62.7301 20.9807 63.4737 21.0329 63.8209 21.1117C63.8647 20.5984 63.5613 19.7476 63.4459 19.6943ZM55.7088 20.969C56.181 22.5397 58.9876 21.0489 61.1799 20.8987C61.869 20.3311 62.4032 19.7582 62.6938 19.2535C60.0197 18.7199 57.0635 19.066 55.7088 20.969ZM64.0207 15.9246C64.2344 16.4208 64.3775 16.9767 64.4085 17.1833C64.4395 17.4005 64.4288 17.5911 64.5442 17.5326C64.9267 17.342 65.5762 16.4805 65.6852 15.8852C65.229 15.965 64.4107 15.9512 64.0207 15.9246ZM55.2003 19.4856C57.0421 17.9628 59.7088 17.3899 63.6201 18.0586C63.5869 17.3909 63.2119 16.4198 62.8968 15.9533C58.9823 15.3101 55.2804 15.2484 55.2003 19.4856ZM43.788 1.61978C37.927 1.44194 35.8874 2.36095 32.2892 2.5143C31.5969 2.49619 31.0456 2.30984 30.8341 2.214C30.6621 2.6112 30.5958 3.60901 30.8266 4.08715C28.848 5.266 28.6162 7.57151 26.0093 7.15407C25.8416 7.86542 26.2818 8.83874 26.7818 9.204C27.0478 9.09964 27.5991 8.90795 27.5157 9.17418C26.4634 12.1474 26.6717 13.4221 26.4057 14.9193C26.2476 15.816 24.9688 16.6402 23.8032 16.8681C23.7188 17.6593 24.2262 18.8488 25.3341 19.0479C25.9997 17.6998 26.9837 17.4921 26.8128 17.9053C26.5296 18.59 26.2957 19.8115 26.2754 20.6868C26.2049 23.6259 26.9559 26.6013 27.8961 28.7822C29.7273 33.029 31.9997 36.4218 28.8416 38.411C29.2529 39.3971 31.2956 40.084 32.8041 39.4812C33.4313 37.8423 33.0349 36.6145 32.9505 36.2088C32.9227 36.0661 33.0627 36.0363 33.2187 36.1609C34.1396 36.9329 34.193 38.4515 34.0157 39.6559C33.5488 42.8484 30.8127 46.7981 32.7027 50.5115C33.2667 49.9971 34.1396 49.5775 34.9323 49.4018C35.0616 47.4626 35.6759 46.0942 36.803 45.2785C37.4654 44.8004 37.5787 45.1028 37.3992 45.3041C36.0082 46.9962 36.1043 50.1803 36.475 53.0374C36.9398 56.6069 35.8105 58.7059 34.7347 59.2692C36.0584 60.1009 38.256 59.5972 39.3874 59.0094C40.2165 58.5791 41.5006 57.5121 41.991 56.5345C40.74 54.3962 40.6588 52.3942 40.9771 51.1067C41.2389 50.0472 41.8329 49.6808 41.7218 50.1909C40.9226 54.6912 45.2185 56.756 45.1224 61.1413C47.3499 60.4108 48.32 57.7325 48.1395 55.2141C48.179 54.8743 48.4471 55.0447 48.5711 55.3855C49.8349 58.9742 47.5422 63.976 43.2859 63.5405C43.8831 61.4192 43.1854 58.9316 42.5679 57.724C42.022 58.8432 40.9868 59.7835 40.0017 60.3373C39.8703 61.4544 39.6182 62.4341 39.4237 63.2466C38.7208 66.1878 37.4868 68.2356 35.6513 70.1088C31.6396 74.2076 30.1535 74.5377 27.5318 78.3352C26.9602 78.9219 25.2262 79.859 24.2252 80.252C16.284 83.37 9.62704 79.1274 10.1569 70.6402C10.3696 67.2304 12.1559 62.7397 13.5789 59.4949C17.7402 50.0056 21.6558 42.0689 22.1568 34.8308C22.5681 28.8791 20.0009 22.9455 13.7937 22.8826C9.57576 22.84 5.51063 26.2903 5.42195 33.209C5.3696 37.2865 5.46362 40.3662 3.71043 43.1487C3.33864 43.744 3.15381 44.0379 2.64848 44.6886C5.06619 45.09 7.61958 43.7259 9.32042 41.7835C9.48174 42.0711 9.74135 42.529 9.85139 42.973C11.6409 41.2639 11.9251 38.1128 11.2638 35.6124C12.4304 35.949 13.4796 35.2397 13.8962 34.2547C11.2039 33.9001 9.40268 31.3518 9.82682 28.5575C10.079 26.9058 11.5437 25.0998 13.5287 24.8676C18.706 24.2585 20.2252 29.4925 20.1536 34.456C20.0618 40.7485 16.2509 47.7012 12.8738 54.753C10.1559 60.4299 7.07258 66.1932 6.75848 71.5837C6.41019 77.5674 9.15802 88.26 24.0895 85.9428C24.6878 84.2059 25.426 83.5319 25.8715 83.7321C26.0168 83.8066 25.91 84.0803 25.8277 84.6383C25.5585 86.4806 25.4666 87.6296 25.5585 89.5975C25.7326 93.4706 27.4249 97.3415 27.6236 100.14C27.9377 104.567 25.6429 105.08 22.0115 105.486C20.4859 105.66 18.2124 105.604 16.8235 106.267C16.0169 106.654 15.4859 108.652 14.6986 109.658C13.924 110.651 12.8567 111.144 11.5629 111.395C11.9561 112.394 13.3022 113.113 14.7659 113.15C15.2968 112.756 15.877 111.812 16.1227 110.688C16.1729 110.458 16.4592 110.29 16.4282 111.157C16.3503 113.485 14.1943 116.028 11.7873 116.393C12.22 117.503 13.9261 118.348 15.2595 118.189C16.3032 117.633 17.1312 116.642 17.5126 115.235C17.6109 114.837 17.8663 115.017 17.8502 115.541C17.8193 116.929 17.1002 118.064 16.1558 118.933C15.2092 119.8 14.5971 120.958 14.9058 122.312C15.5287 122 16.7359 121.937 17.6408 122.137C18.1013 121.706 18.7455 120.988 18.9314 119.951C18.9934 119.606 19.347 119.682 19.2851 120.496C19.1398 122.424 17.5447 123.311 17.9517 125.136C21.753 123.324 22.1696 130.057 25.1258 132.087C27.5756 133.766 32.1193 132.762 36.2507 133.055C36.5477 131.244 37.7079 129.389 39.319 129.046C38.6299 126.453 35.6172 126.553 34.2379 127.446C33.9388 127.645 34.0253 127.247 34.3629 126.966C36.037 125.729 38.4611 126.109 39.6182 127.541C39.9002 127.016 40.46 126.584 40.913 126.509C39.7239 124.036 36.8864 123.568 34.833 124.823C34.4622 125.066 34.5691 124.525 35.224 124.148C37.6844 122.724 40.2912 123.836 41.4494 125.654C41.6844 125.266 42.1951 124.786 42.585 124.817C41.912 123.211 40.1588 122.075 37.9259 122.119C34.0499 122.187 30.7839 124.755 29.3651 122.774C27.7679 120.526 25.7839 116.449 25.629 111.575C25.629 111.164 25.644 110.776 26.0126 110.644C29.0147 109.966 31.8501 109.4 34.3843 108.585C37.1107 107.697 39.8244 106.761 41.7763 104.474C43.8553 102.045 44.4226 96.5609 44.7762 92.1139C44.945 89.9894 45.1544 86.8416 45.319 84.5116C45.5818 80.7823 46.3713 78.3969 47.835 77.7154C48.2068 77.5418 48.3927 77.7228 48.1042 78.2361C47.7313 78.8538 47.4226 80.0028 47.2773 81.0506C47.9301 80.5395 48.7719 79.9836 49.3563 79.6663C51.2762 78.628 52.5604 78.0668 54.6779 76.9625C56.6981 75.9051 58.6329 74.5005 60.0763 73.3749C60.9908 72.6582 62.0517 71.802 62.9652 70.572C62.7429 70.2781 62.509 69.8841 62.3936 69.6147C61.3637 71.0012 59.243 72.1502 57.5763 72.0075C58.0176 70.6146 57.5112 68.6669 56.3392 67.7043C55.0432 66.6426 54.2323 66.0473 53.415 65.1517C50.6918 62.1785 53.0155 55.8998 50.2217 52.1131C50.0251 51.7233 50.4493 51.8277 50.9076 52.26C52.5326 53.7945 52.8413 56.1544 53.1757 58.5216C53.43 60.2968 53.5336 62.4149 54.3808 63.7418C55.8894 66.1059 59.3263 66.6245 59.1757 70.1844C60.2707 69.8969 61.619 68.8416 61.6724 67.9109C61.6212 67.486 61.4096 66.5275 60.8284 66.0941C60.6863 65.9855 60.7761 65.7683 61.2098 65.9046C62.0186 66.157 62.416 67.1495 62.7622 67.8789C63.1372 68.6691 63.526 69.3836 64.0773 70.0225C65.0698 71.1641 66.2878 71.7466 66.4566 73.6006C67.3754 73.3142 68.6008 72.3707 68.7119 71.146C68.2226 69.7659 68.5399 68.4657 67.0965 67.5115C66.9074 67.3859 66.994 67.0685 67.776 67.3922C69.6157 68.1611 69.3369 70.3537 70.23 71.5528C70.8251 72.3515 71.5377 73.0256 72.7482 73.2939C72.8742 72.1715 73.3561 70.9586 74.355 70.3154C74.261 69.6903 74.1648 69.3165 73.4576 68.766C73.2685 68.6169 73.3037 68.3166 74.105 68.7223C75.7727 69.5657 75.2845 71.933 77.5142 72.8765C78.1488 70.9149 80.5494 71.5911 82.8282 72.1768C83.9639 72.4708 85.3592 72.8137 86.5782 72.8765C91.1038 73.0958 91.8569 70.0598 95.8259 69.078C95.5417 67.1058 95.9499 65.2965 97.218 64.5415C95.5588 62.5874 92.8163 63.5874 91.8858 64.9238C91.6796 65.1922 91.7052 64.7204 92.0225 64.2646C93.2159 62.4682 95.6347 62.2829 97.108 63.1412C97.078 62.5257 97.3152 61.5193 97.6913 61.4948C96.6069 60.2798 93.4275 59.7825 91.7052 61.858C91.4969 62.0944 91.5482 61.6429 91.7993 61.2744C93.0557 59.5631 95.89 59.0786 97.8109 60.5066C97.7939 60.1062 98.0022 59.2426 98.4701 59.2213C97.6592 58.265 96.0428 57.7017 94.4606 57.8603C89.9008 58.3161 88.654 63.3339 83.7374 62.9229C82.6006 62.8281 81.5002 62.1008 79.3005 61.3468C78.1466 60.9507 76.731 60.5609 75.449 60.2606C71.9298 59.4396 68.6627 59.3959 66.8497 57.0318C66.2376 56.2353 65.7076 55.2716 65.5015 53.8542C65.3914 53.2003 65.6478 52.9032 65.8305 53.3398C66.9106 55.4547 68.0367 57.4152 70.7151 57.9349C71.8112 55.8562 72.6328 52.3122 72.4971 49.2464C71.3305 48.7224 71.339 48.1964 70.9629 48.0377C71.1307 50.3677 70.2525 52.801 69.5238 53.5283C69.1895 51.3453 67.369 49.7288 65.4961 49.2229C65.2557 49.158 65.2247 48.7661 66.244 48.8342C66.9299 48.8811 68.5431 49.3049 69.2525 50.242C69.8999 47.9951 69.5121 45.8919 68.7151 43.8505C68.2845 42.7441 67.2546 41.3011 66.1104 40.4652C65.8615 40.2831 65.9651 40.002 66.7771 40.4194C68.8593 41.4907 70.4619 43.5864 70.8166 46.4947C71.917 47.1357 72.3775 48.5701 73.9234 48.1602C72.5997 46.6821 73.261 44.2083 71.1755 40.609C70.0666 38.6943 68.5805 37.3163 66.0816 36.0948C63.0004 34.5869 59.2878 33.5263 56.9107 32.5764C54.4182 31.5807 53.0379 30.4796 52.711 26.8962C51.8755 26.5225 51.3873 25.9858 50.8905 25.3628C50.4364 25.7579 50.1576 26.6268 50.1384 27.1933C48.5209 26.4149 47.6566 24.775 47.5048 23.3416C46.9984 23.4161 45.9728 26.3318 42.2261 24.9368C44.4515 22.6185 41.4002 20.7901 43.804 18.031C44.2538 17.4719 44.9322 17.3302 44.6342 17.7466C42.444 20.8689 45.085 21.9455 44.0615 23.9869C46.4354 24.2095 46.5775 21.0808 48.6598 21.1309C48.3724 22.5163 48.6961 24.4044 49.5401 24.9943C50.039 24.1179 50.6501 23.5418 51.57 23.1883C51.9749 24.9027 53.1896 25.8218 54.6736 26.1508C56.915 26.646 59.4363 25.3234 61.2686 25.5832C62.3744 25.7387 63.3615 26.3851 63.7568 27.3137C64.6713 26.4213 65.5079 23.0392 65.1446 22.7879C61.5774 20.5643 55.7922 25.3255 54.1031 21.3013C53.8039 20.5888 53.6586 19.6815 53.7847 18.8744C54.2836 15.6243 56.4428 14.0535 60.321 14.3347C62.0229 14.4582 65.7525 15.258 66.7472 14.5221C67.5719 13.9119 67.3455 11.6171 66.8455 10.6139C65.8423 10.3456 64.6809 9.67255 64.7408 8.93564C64.8017 8.28073 65.4117 9.65871 66.7472 9.24659C67.1211 9.07727 67.3251 7.73018 67.0816 7.64711C64.9384 6.85057 61.9897 6.34794 59.3829 6.62161C58.9972 7.78342 58.0795 7.90162 58.0015 8.79188C57.868 10.3189 57.3894 11.5745 56.7398 12.0739C56.4877 12.2422 56.5037 11.9845 56.6522 11.501C56.8359 10.9046 57.0464 9.91109 56.7676 9.29664C56.1725 7.99747 53.6191 8.1785 53.5625 6.74088C53.524 6.15519 53.868 6.22015 56.3936 6.80797C57.462 7.05503 57.5688 7.071 57.7216 6.74408C58.1426 5.80377 56.6939 5.29901 55.4172 4.99125C51.5742 4.06692 48.0348 4.18725 46.5326 4.76762C48.0497 5.48643 48.4429 6.93257 47.9621 7.62262C47.6309 8.06242 47.8681 6.90807 46.1608 5.88257C44.2976 4.76336 41.006 4.58233 40.3628 5.48537C40.0017 5.99439 39.9002 7.50655 40.0124 8.19234C40.2026 9.37119 40.584 10.5266 41.8906 11.3988C43.6865 12.5978 44.8948 11.9323 44.7271 12.3146C44.3478 13.126 42.007 13.0121 40.6363 11.9259C39.4985 11.025 38.6545 9.83442 38.4323 8.14442C38.2763 6.94321 38.4366 5.13608 38.9878 4.4833C39.7336 3.60262 41.8521 3.40881 43.8318 3.79537C45.4258 3.30871 47.5348 3.00096 49.1555 3.1149C48.0209 2.16714 45.7752 1.68048 43.788 1.61978ZM66.7108 16.0886C66.323 16.8883 65.6393 17.9149 64.9074 18.2631C66.0666 18.4697 68.0367 18.8797 69.4918 18.7231C71.3091 18.5261 72.402 16.8436 71.4341 15.1366C71.3657 15.0173 71.3978 14.6755 71.8465 14.9193C74.0975 16.1322 73.6306 19.4089 71.2834 20.247C69.0431 21.0478 66.2568 19.8455 64.2899 19.5197C64.5827 20.0457 64.7867 20.7156 64.8262 21.0979C65.3765 21.2448 66.7472 21.6378 66.6959 22.1468C66.4982 23.6962 66.2023 25.5555 65.5581 26.991C64.9833 28.27 63.9448 29.7502 62.6756 29.9174C62.9342 25.4874 57.9855 28.5436 55.1896 27.6268C54.9375 30.7778 59.8915 31.6148 65.1842 33.8735C67.9405 35.0512 70.6403 36.508 72.4373 39.2427C74.5313 37.6539 76.3048 36.7008 79.0772 35.2951C80.1178 34.768 81.0782 34.2856 81.278 33.3016C81.4382 32.521 81.3528 30.4615 81.1883 29.2348C80.3613 23.086 86.3495 19.6965 90.3805 22.8177C90.2704 22.9987 90.155 23.2809 90.1273 23.5791C91.3741 23.8975 92.6988 24.7025 93.545 25.5215C93.2811 25.8228 93.077 26.1402 92.952 26.5054C93.9531 26.9388 95.2714 28.0186 95.6913 29.1059C95.1902 29.5436 94.6005 30.4402 94.3858 30.8917C93.6315 32.471 93.624 34.4719 93.2854 36.2748C92.9894 37.8423 92.3869 39.5898 91.3805 40.7772C89.1882 43.3617 84.6861 44.7961 82.4639 47.518C81.7064 48.4466 81.7 50.4412 83.0098 50.9129C81.7545 52.4879 79.6584 52.735 78.3079 52.571C78.543 53.5581 79.6541 54.1097 80.2182 54.1651C78.3336 57.9221 75.0024 56.0436 73.3828 57.0638C73.2257 57.5526 73.1061 57.8507 72.9618 58.1755C75.7001 58.6452 78.606 59.6121 80.2641 60.283C81.716 60.8729 83.9211 62.1646 85.9799 61.4118C87.2363 60.9507 88.4286 59.6653 89.5664 58.8092C91.0792 57.6718 92.7554 56.3695 95.9306 56.7464C98.75 57.0808 101.727 59.7569 101.484 64.1219C101.162 64.0804 100.896 64.0815 100.661 64.1219C100.792 64.7907 100.96 66.2688 100.833 67.1612C100.41 67.0994 100.084 67.1271 99.8419 67.1739C99.9071 67.9822 99.6742 69.6413 99.1325 70.6274C98.3238 70.3591 97.108 70.1578 96.0417 70.5018C93.0674 71.458 91.0899 74.6623 86.3794 74.2694C85.2705 74.1746 83.8399 73.9254 82.7278 73.6698C81.6754 73.4334 80.1584 72.8701 79.4287 72.9755C78.5761 73.0958 78.5248 73.6432 78.3667 74.5622C76.2781 74.214 75.042 73.0447 74.7289 71.8595C73.8027 72.5208 73.8785 73.7135 73.8625 74.788C72.0623 74.625 70.4223 73.9627 69.5185 72.6646C68.8679 73.9701 67.1788 75.2182 65.2098 75.1692C65.3295 74.3492 65.198 73.0309 64.3049 72.1886C63.1179 73.6432 61.7868 74.7496 59.8626 76.1191C63.4459 77.9103 67.4747 80.252 70.9779 83.2454C74.1691 85.9684 77.9372 90.2716 78.1381 94.6622C78.3539 99.3893 74.9415 102.121 72.2086 104.131C69.5025 106.13 67.245 107.74 64.6617 109.464C64.4213 109.614 64.4363 109.745 64.5025 109.938C65.1222 111.731 66.0452 113.499 67.073 114.811C67.6574 115.56 68.8262 116.935 69.9907 116.967C71.7856 117.023 74.3358 115.392 76.3892 115.135C80.8763 114.568 84.1295 118.32 82.6979 123.199C82.4147 123.056 82.0216 122.994 81.7684 123.024C81.8154 124.486 81.325 126.029 80.9041 126.872C80.5408 126.635 80.122 126.503 79.8346 126.459C79.6135 127.672 78.949 129.288 78.1156 130.095C77.5312 129.582 76.5911 129.308 76.0494 129.246C69.6681 128.983 66.7215 129.826 64.4459 128.358C63.7216 127.89 62.9107 126.635 62.259 125.779C61.5784 124.886 60.8252 123.506 60.1158 123.33C59.2227 123.111 58.6671 123.461 58.2099 123.922C57.5795 123.125 57.1842 121.913 57.3637 120.894C56.5368 120.689 55.5518 121.387 54.9834 121.949C54.2879 121.014 53.8841 119.283 54.1127 117.84C53.0059 117.591 51.9247 118.329 51.3285 119.027C50.2409 117.259 50.4664 115.323 51.1255 114.225C49.6266 113.924 48.32 112.888 47.7997 111.439C50.3456 110.358 50.7014 108.727 51.5422 106.916C52.6512 104.524 59.7291 104.255 60.478 100.882C60.7173 99.8078 60.3583 98.4032 59.9759 97.6961C58.0763 94.1755 52.0507 93.0638 46.8884 93.1011C46.6886 96.0178 46.3745 98.5097 45.7965 100.67C45.2549 102.695 44.351 104.65 43.0765 106.074C41.381 107.959 38.4163 109.021 35.7144 109.82C33.0071 110.621 30.629 111.151 27.7796 111.819C27.3106 111.869 28.0115 116.698 29.4741 119.827C30.27 121.524 30.5681 122.443 31.9879 122.23C33.7561 121.962 36.1727 120.776 38.4099 120.857C42.9654 121.02 46.1523 125.848 43.6502 130.777C43.3575 130.607 43.1384 130.494 42.8852 130.45C42.7143 131.563 42.2399 132.661 41.7848 133.399C41.4088 133.131 41.1235 133.006 40.7613 132.893C40.3094 134.286 39.4077 135.453 38.6267 135.972C38.0605 135.398 37.2891 134.873 36.1802 134.829C29.2988 134.571 26.3299 135.579 23.5339 133.043C22.6216 132.211 21.9015 130.851 21.3032 129.463C20.1344 126.759 19.206 125.274 17.1985 127.247C16.3727 126.003 16.2776 124.436 16.8193 123.4C15.9208 123.111 14.6986 123.506 13.9689 123.866C13.2413 122.588 13.3343 120.496 14.1195 119.465C12.2285 119.276 10.4326 117.715 10.0854 115.629C11.1644 115.66 12.5276 115.086 13.2873 114.337C11.5319 113.979 10.126 112.458 9.71785 110.421C10.8792 110.421 12.1975 110.163 12.9379 109.589C14.6088 108.284 14.0832 105.66 16.6708 104.798C19.7744 103.762 25.848 105.161 26.0243 101.294C26.1002 99.6768 24.9143 96.5854 24.4089 94.6558C23.8726 92.6069 23.5703 90.4644 23.5713 88.0982C9.24349 89.4602 4.65593 79.9975 5.06084 72.3142C5.39204 66.0441 7.65911 61.6929 11.3022 54.4569C15.7926 45.5416 19.0532 39.1234 18.7765 32.9992C18.6504 30.207 17.6195 26.9154 15.533 26.334C11.5501 25.2212 10.0277 29.7278 11.9603 32.0482C12.6131 32.8309 13.8749 33.406 15.3855 33.2516C15.4368 35.326 14.3791 36.5985 12.9058 36.9446C13.4197 40.7431 11.8599 43.9485 9.142 45.4329C9.10888 44.9963 8.99563 44.6481 8.88239 44.2275C6.92835 45.7503 2.7286 47.3487 0 45.5096C0.804479 44.5938 1.2158 44.1146 1.73396 43.4032C2.80125 41.9422 3.69227 40.1819 3.82047 38.1618C3.95402 36.0501 4.04162 33.9821 4.08329 32.2559C4.21577 26.811 7.84073 21.1841 14.5031 21.6793C20.1152 22.0935 23.2957 26.6673 23.5842 32.7873C23.9164 39.8433 20.3427 47.9408 15.503 59.2553C13.58 63.746 11.7905 68.4199 11.9347 72.0267C12.1142 76.4556 15.0853 79.5577 19.2786 79.6663C21.8363 79.728 24.9944 78.4981 26.3192 77.1553C26.504 76.9668 26.6835 76.7048 27.4004 75.7123C30.599 71.2845 37.1577 68.4231 37.5488 61.4416C35.3533 62.1146 32.5264 60.7643 32.0499 59.1521C34.0082 58.43 35.4078 56.8455 34.9216 52.7765C34.8885 52.3963 34.8372 51.8554 34.8191 51.3868C33.7358 51.5678 32.8479 52.3378 32.3351 53.1684C28.7753 49.5051 30.6151 44.8292 31.8223 41.5748C29.0852 41.709 26.8907 39.6165 26.6108 37.7582C27.9345 37.5857 28.7679 36.6209 28.7347 35.4623C28.7091 34.5039 28.036 33.0492 27.5083 31.9034C26.0008 28.6267 24.5425 25.334 24.6258 20.8668C22.6654 19.9446 21.8032 17.6593 21.8587 15.8596C23.5404 15.7372 24.7359 14.9385 24.7871 13.8672C24.8288 13.0142 24.9709 11.4211 25.3277 10.3701C24.6856 9.74603 23.6579 7.83667 24.6664 5.59505C25.3833 5.76118 26.5093 5.79206 27.192 5.41721C27.489 5.25215 28.0692 4.2192 29.0563 3.49933C28.9121 2.80182 29.0467 1.24174 29.8266 0.253515C30.3074 0.470754 31.0851 0.682669 31.8501 0.759342C35.1674 1.09479 43.0562 -1.24267 48.8873 0.948894C50.102 1.4068 51.1319 2.09899 51.8894 2.85506C53.0475 2.97859 54.5016 3.22778 55.9364 3.54938C58.7911 4.18725 58.7334 4.69947 59.7985 4.90713C60.2312 4.99019 61.4267 5.07538 62.6222 5.17761C63.8968 5.28623 67.5666 5.95286 68.2931 6.73236C68.9544 7.44585 68.2781 8.72692 68.3155 10.1273C68.3497 11.4201 69.0004 13.7085 68.1189 15.2473C67.8326 15.7435 67.2685 15.9938 66.7108 16.0886ZM46.8728 9.16513C46.6987 9.98191 45.9903 10.1842 45.9861 9.57405C45.9786 7.834 44.1506 6.94907 42.2179 6.77762C41.7051 6.73077 42.2169 6.35912 42.75 6.30907C44.5983 6.13336 47.2692 7.29836 46.8728 9.16513ZM31.0956 24.6863C30.4407 28.3953 32.4589 28.6317 32.5678 31.3653C33.9097 31.6187 35.3862 30.6454 36.1992 29.3686C36.3338 29.1567 36.4599 29.3729 36.3424 29.8425C35.8627 31.7614 33.4001 33.6442 31.0294 32.82C32.0956 30.3238 29.0048 27.915 30.6587 24.863C30.9856 24.2656 31.1426 24.3806 31.0956 24.6863ZM37.738 34.7487C37.9527 34.4814 38.1407 34.5538 38.0638 34.8169C36.2113 40.9688 40.7636 41.4065 41.1108 46.7107C43.0018 46.2017 43.8522 44.6746 44.4761 42.8537C44.6225 42.3617 44.8768 42.6332 44.8405 43.2924C44.7667 44.6608 44.3885 45.7736 43.9537 46.4317C43.1738 47.6148 41.396 49.0982 39.1407 48.7234C40.5734 44.0964 36.6675 42.3745 36.6557 38.2203C36.6536 37.2523 37.0414 35.5516 37.738 34.7487ZM61.9003 45.8376C61.7507 45.6204 61.7411 45.2189 62.5584 45.9654C66.2507 49.3369 62.6119 55.2098 65.0883 58.1138C61.6888 59.4396 58.4345 57.0989 58.0542 55.0969C57.8769 54.1129 58.5852 55.426 59.5221 56.0447C60.3095 56.5654 61.8416 57.1011 62.6428 56.9179C61.6888 53.3058 64.63 50.242 61.9003 45.8376Z"/>
</svg>
