<svg xmlns="http://www.w3.org/2000/svg" viewBox="0 0 32 32" fill="currentColor" aria-hidden="true"><path d="M29.71 13.09a8.09 8.09 0 0 0-.7-6.64 8.16 8.16 0 0 0-8.79-3.93A8.1 8.1 0 0 0 6.53 5.45 8.16 8.16 0 0 0 2.3 18.91a8.09 8.09 0 0 0 .7 6.64 8.16 8.16 0 0 0 8.79 3.93 8.1 8.1 0 0 0 13.69 2.07 8.16 8.16 0 0 0 4.23-13.46zM17.84 28.26a6.06 6.06 0 0 1-3.9-1.41l.19-.11 6.47-3.74a1.07 1.07 0 0 0 .54-.92v-9.13l2.74 1.58a.1.1 0 0 1 .05.08v7.55a6.09 6.09 0 0 1-6.09 6.1zM4.74 22.67a6.05 6.05 0 0 1-.75-4.11l.19.11 6.47 3.74a1.05 1.05 0 0 0 1.06 0l7.91-4.56v3.16a.12.12 0 0 1 0 .1l-6.54 3.77a6.1 6.1 0 0 1-8.34-2.21zM3 8.94a6.06 6.06 0 0 1 3.2-2.66v7.68a1 1 0 0 0 .53.92l7.88 4.54-2.74 1.58a.1.1 0 0 1-.09 0L5.25 17.23A6.1 6.1 0 0 1 3 8.94zm22.45 5.23-7.91-4.57 2.74-1.59a.1.1 0 0 1 .09 0l6.52 3.77a6.1 6.1 0 0 1-.93 11L26 21v-7.55a1.06 1.06 0 0 0-.55-.28zM28.17 9.1l-.19-.11-6.47-3.74a1.05 1.05 0 0 0-1.06 0L12.54 9.8V6.66a.09.09 0 0 1 0-.1l6.53-3.77a6.09 6.09 0 0 1 9 6.31zM11 17.71 8.29 16.13a.11.11 0 0 1 0-.08v-7.5a6.1 6.1 0 0 1 10-4.68l-.19.11L11.63 7.7a1.07 1.07 0 0 0-.54.92zm1.47-3.21 3.53-2 3.53 2v4.07l-3.53 2-3.53-2z"/></svg>
